<svg width="18.750000" height="18.750000" viewBox="0 0 18.75 18.75" fill="none" xmlns="http://www.w3.org/2000/svg" xmlns:xlink="http://www.w3.org/1999/xlink">
	<desc>
			Created with Pixso.
	</desc>
	<defs>
		<clipPath id="clip122_54">
			<rect id="chat-bubble 1" rx="0.000000" width="18.000000" height="18.000000" transform="translate(0.375000 0.375000)" fill="white" fill-opacity="0"/>
		</clipPath>
	</defs>
	<rect id="chat-bubble 1" rx="0.000000" width="18.000000" height="18.000000" transform="translate(0.375000 0.375000)" fill="#FFFFFF" fill-opacity="0"/>
	<g clip-path="url(#clip122_54)">
		<path id="Vector" d="M9.37 0.78C7.88 0.77 6.41 1.16 5.11 1.9C3.81 2.64 2.73 3.71 1.97 4.99C1.21 6.28 0.8 7.74 0.78 9.23C0.75 10.72 1.12 12.2 1.85 13.51L0.81 16.96C0.77 17.08 0.77 17.2 0.79 17.32C0.81 17.44 0.86 17.55 0.93 17.65C1 17.75 1.1 17.83 1.21 17.88C1.32 17.94 1.44 17.96 1.56 17.96C1.63 17.96 1.71 17.95 1.78 17.93L5.24 16.9C6.38 17.53 7.66 17.89 8.97 17.95C10.28 18.02 11.59 17.78 12.79 17.26C14 16.74 15.07 15.95 15.92 14.95C16.77 13.96 17.38 12.78 17.71 11.51C18.04 10.23 18.07 8.91 17.8 7.62C17.53 6.34 16.98 5.13 16.17 4.1C15.37 3.06 14.33 2.22 13.16 1.65C11.98 1.07 10.68 0.77 9.37 0.78ZM9.37 16.4C8.09 16.4 6.83 16.05 5.74 15.38C5.62 15.31 5.48 15.27 5.33 15.27C5.26 15.27 5.18 15.28 5.11 15.3L2.72 16.02L3.44 13.63C3.47 13.53 3.48 13.42 3.47 13.31C3.45 13.2 3.42 13.1 3.36 13.01C2.56 11.68 2.22 10.12 2.4 8.58C2.57 7.03 3.26 5.59 4.34 4.48C5.42 3.37 6.84 2.64 8.38 2.42C9.91 2.2 11.48 2.5 12.83 3.26C14.18 4.02 15.24 5.21 15.85 6.64C16.45 8.07 16.56 9.66 16.17 11.17C15.77 12.67 14.89 13.99 13.66 14.94C12.43 15.89 10.92 16.4 9.37 16.4Z" fill="#FFFFFF" fill-opacity="1.000000" fill-rule="nonzero"/>
	</g>
</svg>
