<svg width="21.000000" height="21.750000" viewBox="0 0 21 21.75" fill="none" xmlns="http://www.w3.org/2000/svg" xmlns:xlink="http://www.w3.org/1999/xlink">
	<desc>
			Created with Pixso.
	</desc>
	<defs>
		<clipPath id="clip113_566">
			<rect id="cross 2" rx="0.000000" width="20.250000" height="21.000000" transform="matrix(-1 0 0 1 21.375 0.375)" fill="white" fill-opacity="0"/>
		</clipPath>
	</defs>
	<rect id="cross 2" rx="0.000000" width="20.250000" height="21.000000" transform="matrix(-1 0 0 1 21.375 0.375)" fill="#FFFFFF" fill-opacity="0"/>
	<g clip-path="url(#clip113_566)">
		<path id="Форма 1" d="M7.84 10.87L0.88 17.86C0.15 18.59 0.15 19.77 0.88 20.5C1.61 21.24 2.79 21.24 3.52 20.5L10.48 13.52L17.43 20.5C18.16 21.24 19.34 21.24 20.07 20.5C20.8 19.77 20.8 18.59 20.07 17.86L13.11 10.87L20.07 3.88C20.8 3.15 20.8 1.97 20.07 1.24C19.34 0.51 18.16 0.51 17.43 1.24L10.48 8.22L3.52 1.24C2.79 0.51 1.61 0.51 0.88 1.24C0.15 1.97 0.15 3.15 0.88 3.88L7.84 10.87Z" fill="#333333" fill-opacity="1.000000" fill-rule="evenodd"/>
	</g>
</svg>
