<svg width="6.984375" height="11.282227" viewBox="0 0 6.98438 11.2822" fill="none" xmlns="http://www.w3.org/2000/svg" xmlns:xlink="http://www.w3.org/1999/xlink">
	<desc>
			Created with Pixso.
	</desc>
	<defs/>
	<path id="$" d="M6.83 8.23Q6.98 7.83 6.98 7.37Q6.98 6.62 6.61 6.14Q6.6 6.12 6.58 6.1Q6.4 5.87 6.18 5.7Q5.92 5.5 5.6 5.37Q5.02 5.12 4.18 4.93L4.18 2.89Q5.12 3 6.02 3.51L6.62 2.04Q5.66 1.42 4.18 1.3L4.18 9.53e-7L2.98 9.53e-7L2.98 1.33Q1.62 1.48 0.89 2.2Q0.5 2.58 0.32 3.05Q0.16 3.45 0.16 3.91Q0.16 4.7 0.55 5.19Q0.55 5.19 0.56 5.2Q0.72 5.4 0.91 5.55Q1.19 5.79 1.54 5.94Q2.13 6.19 2.98 6.39L2.98 8.39Q2.67 8.37 2.36 8.3Q2.03 8.22 1.72 8.11Q1.11 7.88 0.65 7.54L3.09e-6 9.01Q0.49 9.39 1.29 9.66Q2.09 9.92 2.98 9.97L2.98 11.28L4.18 11.28L4.18 9.93Q5.54 9.76 6.26 9.06Q6.65 8.68 6.83 8.23ZM2.15 4.08Q2.09 3.96 2.09 3.81Q2.09 3.66 2.14 3.53Q2.2 3.39 2.31 3.27Q2.53 3.03 2.98 2.92L2.98 4.63Q2.55 4.5 2.32 4.3Q2.21 4.21 2.15 4.08ZM4.83 8.04Q4.62 8.25 4.18 8.35L4.18 6.69Q4.6 6.84 4.82 7.03Q4.93 7.12 4.98 7.23Q5.05 7.36 5.05 7.52Q5.05 7.66 5 7.78Q4.94 7.92 4.83 8.04Z" fill="#FFFFFF" fill-opacity="1.000000" fill-rule="evenodd"/>
</svg>
