<svg width="21.000000" height="21.000000" viewBox="0 0 21 21" fill="none" xmlns="http://www.w3.org/2000/svg" xmlns:xlink="http://www.w3.org/1999/xlink">
	<desc>
			Created with Pixso.
	</desc>
	<defs/>
	<path id="Vector" d="M21 19.68C21 20.41 20.41 21 19.68 21L1.31 21C0.58 21 0 20.41 0 19.68C0 18.96 0.58 18.37 1.31 18.37L19.68 18.37C20.41 18.37 21 18.96 21 19.68ZM9.57 15.52C9.82 15.78 10.16 15.91 10.5 15.91C10.83 15.91 11.17 15.78 11.42 15.52L16.07 10.87C16.59 10.36 16.59 9.53 16.07 9.02C15.56 8.51 14.73 8.51 14.22 9.02L11.81 11.43L11.81 1.31C11.81 0.58 11.22 0 10.5 0C9.77 0 9.18 0.58 9.18 1.31L9.18 11.43L6.77 9.02C6.26 8.51 5.43 8.51 4.92 9.02C4.4 9.53 4.4 10.36 4.92 10.87L9.57 15.52Z" fill="#FFFFFF" fill-opacity="1.000000" fill-rule="nonzero"/>
</svg>
