<svg width="17.250000" height="17.250000" viewBox="0 0 17.25 17.25" fill="none" xmlns="http://www.w3.org/2000/svg" xmlns:xlink="http://www.w3.org/1999/xlink">
	<desc>
			Created with Pixso.
	</desc>
	<defs>
		<clipPath id="clip122_48">
			<rect id="flag 1" rx="0.000000" width="16.500000" height="16.500000" transform="translate(0.375000 0.375000)" fill="white" fill-opacity="0"/>
		</clipPath>
	</defs>
	<rect id="flag 1" rx="0.000000" width="16.500000" height="16.500000" transform="translate(0.375000 0.375000)" fill="#FFFFFF" fill-opacity="0"/>
	<g clip-path="url(#clip122_48)">
		<path id="Vector" d="M2.22 17.07C1.83 17.07 1.5 16.74 1.5 16.35L1.5 2.15C1.5 1.76 1.83 1.43 2.22 1.43C2.62 1.43 2.94 1.76 2.94 2.15L2.94 16.35C2.91 16.74 2.62 17.07 2.22 17.07Z" fill="#FFFFFF" fill-opacity="1.000000" fill-rule="nonzero"/>
		<path id="Vector" d="M4.92 11.93C3.73 11.93 2.73 11.53 1.76 10.67C1.61 10.52 1.5 10.35 1.5 10.13L1.5 1.97C1.5 1.68 1.68 1.43 1.94 1.32C2.19 1.22 2.48 1.25 2.69 1.43C3.41 2.04 4.09 2.33 4.92 2.33C6 2.33 7.15 1.83 8.33 1.29C9.63 0.71 10.92 0.14 12.32 0.14C13.51 0.14 14.51 0.53 15.48 1.4C15.63 1.54 15.74 1.72 15.74 1.94L15.74 10.09C15.74 10.38 15.56 10.63 15.3 10.74C15.05 10.85 14.77 10.81 14.55 10.63C13.83 10.02 13.15 9.73 12.32 9.73C11.24 9.73 10.09 10.24 8.91 10.78C7.61 11.32 6.28 11.89 4.92 11.93ZM2.91 9.81C3.52 10.27 4.16 10.52 4.92 10.52C6 10.52 7.15 10.02 8.33 9.48C9.63 8.91 10.92 8.33 12.32 8.33C13.04 8.33 13.69 8.48 14.33 8.8L14.33 2.29C13.72 1.83 13.08 1.58 12.32 1.58C11.24 1.58 10.09 2.08 8.91 2.62C7.61 3.19 6.32 3.77 4.92 3.77C4.2 3.77 3.55 3.62 2.91 3.3L2.91 9.81Z" fill="#FFFFFF" fill-opacity="1.000000" fill-rule="nonzero"/>
	</g>
</svg>
