<svg width="58.018066" height="71.669128" viewBox="0 0 58.0181 71.6691" fill="none" xmlns="http://www.w3.org/2000/svg" xmlns:xlink="http://www.w3.org/1999/xlink">
	<desc>
			Created with Pixso.
	</desc>
	<defs>
		<clipPath id="clip137_289">
			<rect id="СБП_логотип 1" rx="0.000000" width="57.267853" height="70.919113" transform="translate(0.375004 0.375004)" fill="white" fill-opacity="0"/>
		</clipPath>
	</defs>
	<rect id="СБП_логотип 1" rx="0.000000" width="57.267853" height="70.919113" transform="translate(0.375004 0.375004)" fill="#FFFFFF" fill-opacity="0"/>
	<g clip-path="url(#clip137_289)">
		<path id="path66" d="M0 16.01L8.62 31.6L8.62 41.11L0.01 56.66L0 16.01Z" fill="#5B57A2" fill-opacity="1.000000" fill-rule="nonzero"/>
		<path id="path68" d="M33.11 25.93L41.19 20.92L57.73 20.9L33.11 36.15L33.11 25.93Z" fill="#D90751" fill-opacity="1.000000" fill-rule="nonzero"/>
		<path id="path70" d="M33.06 15.92L33.11 36.56L24.46 31.19L24.46 0.34L33.06 15.92Z" fill="#FAB718" fill-opacity="1.000000" fill-rule="nonzero"/>
		<path id="path72" d="M57.72 20.91L41.19 20.92L33.06 15.92L24.46 0.34L57.72 20.91Z" fill="#ED6F26" fill-opacity="1.000000" fill-rule="nonzero"/>
		<path id="path74" d="M33.11 56.75L33.11 46.74L24.46 41.47L24.47 72.34L33.11 56.75Z" fill="#63B22F" fill-opacity="1.000000" fill-rule="nonzero"/>
		<path id="path76" d="M41.17 51.78L8.62 31.6L0 16.01L57.69 51.76L41.17 51.78Z" fill="#1487C9" fill-opacity="1.000000" fill-rule="nonzero"/>
		<path id="path78" d="M24.47 72.34L33.11 56.75L41.17 51.78L57.69 51.76L24.47 72.34Z" fill="#017F36" fill-opacity="1.000000" fill-rule="nonzero"/>
		<path id="path80" d="M0.01 56.66L24.53 41.47L16.29 36.35L8.62 41.11L0.01 56.66Z" fill="#984995" fill-opacity="1.000000" fill-rule="nonzero"/>
	</g>
</svg>
