<svg width="77.250000" height="20.637060" viewBox="0 0 77.25 20.6371" fill="none" xmlns="http://www.w3.org/2000/svg" xmlns:xlink="http://www.w3.org/1999/xlink">
	<desc>
			Created with Pixso.
	</desc>
	<defs>
		<clipPath id="clip56_1067">
			<rect id="arg-logo 2" rx="0.000000" width="76.500000" height="19.887058" transform="translate(0.375000 0.375000)" fill="white" fill-opacity="0"/>
		</clipPath>
	</defs>
	<rect id="arg-logo 2" rx="0.000000" width="76.500000" height="19.887058" transform="translate(0.375000 0.375000)" fill="#FFFFFF" fill-opacity="0"/>
	<g clip-path="url(#clip56_1067)">
		<path id="Vector" d="M44.35 -1.91e-6C49.03 -1.91e-6 50.93 2.09 50.93 6.07L50.93 7.75C50.93 11.11 49.58 13.09 46.37 13.65L51.6 19.9C51.78 20.1 51.75 20.63 51.2 20.63L47.26 20.63C46.74 20.63 46.58 20.51 46.4 20.25L41.57 14.12L31.7 14.12L31.7 19.98C31.7 20.43 31.49 20.63 31.03 20.63L27.73 20.63C27.27 20.63 27.03 20.43 27.03 19.98L27.03 0.88C27.03 0.29 27.33 -1.91e-6 27.94 -1.91e-6L44.35 -1.91e-6ZM31.7 10.52L43.41 10.52C45.49 10.52 46.25 9.67 46.25 7.9L46.25 6.66C46.25 4.89 45.49 4.03 43.41 4.03L32.1 4.03C31.83 4.03 31.7 4.15 31.7 4.39L31.7 10.52Z" fill="#FFFFFF" fill-opacity="1.000000" fill-rule="nonzero"/>
		<path id="Vector" d="M76.6 -9.73e-5C77.06 -9.73e-5 77.28 0.2 77.28 0.64L77.28 3.53C77.28 3.97 77.06 4.21 76.6 4.21L61.29 4.21C58.14 4.21 57.23 5.09 57.23 8.22L57.23 12.46C57.23 15.59 58.14 16.5 61.29 16.5L71.38 16.5C72.45 16.5 72.91 16.03 72.91 14.7L72.91 12.32C72.91 12.05 72.81 11.93 72.54 11.93L63.59 11.93C63.16 11.93 62.91 11.7 62.91 11.25L62.91 9.04C62.91 8.6 63.16 8.36 63.59 8.36L76.33 8.36C76.94 8.36 77.25 8.66 77.25 9.25L77.25 16.12C77.25 19.42 75.9 20.63 73.46 20.63L61.11 20.63C54.94 20.63 52.55 18.51 52.55 12.84L52.55 7.77C52.55 2.11 54.94 -0.01 61.11 -0.01L76.61 -0.01L76.6 -9.73e-5Z" fill="#FFFFFF" fill-opacity="1.000000" fill-rule="nonzero"/>
		<path id="Vector" d="M24.22 0L10.91 0C4.88 0 0 4.71 0 10.53L0 19.93C0 20.32 0.32 20.63 0.72 20.63L3.95 20.63C4.35 20.63 4.67 20.32 4.67 19.93L4.67 14.11L16.97 14.11L16.97 14.12L20.46 14.12L20.46 19.99C20.46 20.34 20.76 20.63 21.14 20.63L24.43 20.63C24.82 20.63 25.14 20.33 25.14 19.96L25.14 0.88C25.14 0.39 24.73 0 24.22 0ZM4.67 10.52C4.67 6.94 7.68 4.03 11.4 4.03L20.07 4.03C20.34 4.03 20.46 4.15 20.46 4.39L20.46 10.52L4.67 10.52Z" fill="#FFFFFF" fill-opacity="1.000000" fill-rule="nonzero"/>
	</g>
</svg>
