<svg width="36.750000" height="36.750000" viewBox="0 0 36.75 36.75" fill="none" xmlns="http://www.w3.org/2000/svg" xmlns:xlink="http://www.w3.org/1999/xlink">
	<desc>
			Created with Pixso.
	</desc>
	<defs>
		<clipPath id="clip56_1072">
			<rect id="shopping-basket 1" rx="0.000000" width="36.000000" height="36.000000" transform="translate(0.375000 0.375000)" fill="white" fill-opacity="0"/>
		</clipPath>
	</defs>
	<rect id="shopping-basket 1" rx="0.000000" width="36.000000" height="36.000000" transform="translate(0.375000 0.375000)" fill="#FFFFFF" fill-opacity="0"/>
	<g clip-path="url(#clip56_1072)">
		<path id="Vector" d="M33.23 12.83L27.98 12.83C27.96 12.63 27.89 12.44 27.79 12.26L24.06 5.75C23.65 5.04 22.74 4.8 22.04 5.21C21.33 5.62 21.09 6.52 21.49 7.23L24.71 12.84L12.2 12.84L15.24 7.54C15.64 6.83 15.39 5.93 14.69 5.52C13.98 5.12 13.08 5.37 12.67 6.07L8.94 12.58C8.89 12.66 8.86 12.75 8.82 12.84L3.51 12.84C2.7 12.84 2.03 13.5 2.03 14.32C2.03 15.13 2.7 15.8 3.51 15.8L4.23 15.8L6.19 28.24C6.5 30.25 8.24 31.73 10.27 31.73L26.46 31.73C28.49 31.73 30.23 30.25 30.54 28.24L32.5 15.8L33.22 15.8C34.03 15.8 34.7 15.13 34.7 14.32C34.7 13.5 34.03 12.84 33.22 12.84L33.23 12.83ZM13.81 25.66C13.81 26.48 13.14 27.14 12.33 27.14C11.51 27.14 10.85 26.48 10.85 25.66L10.85 19.21C10.85 18.39 11.51 17.73 12.33 17.73C13.14 17.73 13.81 18.39 13.81 19.21L13.81 25.66ZM19.85 25.66C19.85 26.48 19.18 27.14 18.37 27.14C17.55 27.14 16.88 26.48 16.88 25.66L16.88 19.21C16.88 18.39 17.55 17.73 18.37 17.73C19.18 17.73 19.85 18.39 19.85 19.21L19.85 25.66ZM25.88 25.66C25.88 26.48 25.22 27.14 24.4 27.14C23.59 27.14 22.92 26.48 22.92 25.66L22.92 19.21C22.92 18.39 23.59 17.73 24.4 17.73C25.22 17.73 25.88 18.39 25.88 19.21L25.88 25.66Z" fill="#333333" fill-opacity="1.000000" fill-rule="nonzero"/>
	</g>
</svg>
