<svg width="58.000000" height="58.000000" viewBox="0 0 58 58" fill="none" xmlns="http://www.w3.org/2000/svg" xmlns:xlink="http://www.w3.org/1999/xlink">
	<desc>
			Created with Pixso.
	</desc>
	<defs>
		<clipPath id="clip160_20">
			<rect id="ak-47 1" rx="0.000000" width="57.000000" height="57.000000" transform="translate(0.500000 0.500000)" fill="white" fill-opacity="0"/>
		</clipPath>
	</defs>
	<rect id="ak-47 1" rx="0.000000" width="57.000000" height="57.000000" transform="translate(0.500000 0.500000)" fill="#FFFFFF" fill-opacity="0"/>
	<g clip-path="url(#clip160_20)">
		<path id="Vector" d="M8.29 57.89C7.3 57.89 6.62 57.32 6.45 57.15C5.87 56.6 2.92 53.75 2.71 53.31C1.8 51.34 2.85 50.04 3.05 49.84L15.42 38.7L15.73 35.47C15.76 35.13 15.93 34.82 16.17 34.58L27.48 24.19C27.48 23.44 27.38 22.79 27.89 22.28L30.81 19.36C31.25 18.92 31.73 18.95 32.27 19.06C33.46 17.83 36.32 14.91 37.27 14.06C38.02 13.42 38.53 13.38 38.63 13.28L46.1 6.18C46.37 5.94 46.71 5.77 47.05 5.81L50.72 5.87L52.35 4.14L50.59 2.44C49.3 1.22 51.17 -0.75 52.46 0.47L55.21 3.09C55.75 3.6 55.79 4.48 55.28 5.02C51.47 9 47.73 12.7 43.86 16.58C44.27 17.12 44.23 17.94 43.72 18.41C39.82 22.11 36.73 25.65 33.02 29.39C36.59 32.99 42.57 33.4 42.64 33.4C43.35 33.43 43.93 34.04 43.93 34.75L43.93 40.12C43.93 41.31 42.88 41.52 41.99 41.52C37.78 41.52 32.48 38.42 29.42 36.35C29.62 38.7 26.77 41.35 26.36 41.69L27.65 44.71C28.26 46.17 26.5 46.65 25.68 47.02C22.86 48.28 20.42 49.09 18.92 45.29C17.49 47.09 15.25 50.25 13.72 52.35C12.33 54.33 11.11 56.02 10.53 56.74C9.75 57.69 8.9 57.89 8.29 57.89ZM26.29 36.52L24.76 37.85L25.24 39C25.95 38.22 26.7 37.13 26.74 36.66L26.29 36.52ZM41.52 14.27L41.92 14.67L48.07 8.52L47.56 8.52L41.52 14.27Z" fill="#333333" fill-opacity="1.000000" fill-rule="evenodd"/>
	</g>
</svg>
