<svg width="61.500000" height="61.500000" viewBox="0 0 61.5 61.5" fill="none" xmlns="http://www.w3.org/2000/svg" xmlns:xlink="http://www.w3.org/1999/xlink">
	<desc>
			Created with Pixso.
	</desc>
	<defs>
		<clipPath id="clip160_4">
			<rect id="car 2" rx="0.000000" width="60.500000" height="60.500000" transform="translate(0.500000 0.500000)" fill="white" fill-opacity="0"/>
		</clipPath>
	</defs>
	<rect id="car 2" rx="0.000000" width="60.500000" height="60.500000" transform="translate(0.500000 0.500000)" fill="#FFFFFF" fill-opacity="0"/>
	<g clip-path="url(#clip160_4)">
		<path id="Vector" d="M59.36 33.17C58.93 28.32 58.22 27.37 57.95 27.02C57.33 26.2 56.34 25.66 55.29 25.1C55.24 25.07 55.18 25.02 55.15 24.97C55.11 24.91 55.08 24.85 55.07 24.78C55.06 24.72 55.06 24.65 55.08 24.59C55.1 24.52 55.14 24.46 55.19 24.41C55.38 24.22 55.53 23.98 55.62 23.72C55.72 23.46 55.75 23.19 55.73 22.91C55.68 22.42 55.46 21.97 55.09 21.64C54.73 21.31 54.26 21.13 53.77 21.14L51.89 21.14C51.81 21.14 51.73 21.14 51.65 21.15C51.6 21.13 51.54 21.11 51.48 21.09C50.37 18.75 48.85 15.54 45.7 13.97C41.03 11.65 32.43 11.53 30.75 11.53C29.06 11.53 20.46 11.65 15.79 13.97C12.64 15.53 11.12 18.75 10.01 21.09L10 21.11C9.95 21.12 9.89 21.13 9.84 21.15C9.76 21.14 9.68 21.14 9.6 21.14L7.72 21.14C7.23 21.13 6.76 21.31 6.4 21.64C6.03 21.97 5.81 22.42 5.76 22.91C5.74 23.18 5.78 23.46 5.87 23.72C5.97 23.98 6.12 24.21 6.31 24.41C6.36 24.46 6.39 24.51 6.41 24.58C6.43 24.64 6.44 24.71 6.43 24.78C6.42 24.84 6.39 24.91 6.35 24.96C6.31 25.01 6.26 25.06 6.2 25.09C5.16 25.66 4.16 26.19 3.55 27.01C3.28 27.37 2.57 28.31 2.13 33.17C1.89 35.9 1.86 38.73 2.05 40.55C2.44 44.33 3.18 46.62 3.21 46.71C3.33 47.06 3.54 47.36 3.82 47.59C4.1 47.83 4.44 47.97 4.8 48.02L4.8 48.04C4.8 48.55 5 49.04 5.36 49.4C5.72 49.76 6.21 49.96 6.72 49.96L13.45 49.96C13.96 49.96 14.45 49.76 14.81 49.4C15.17 49.04 15.37 48.55 15.37 48.04C16.4 48.04 17.12 47.86 17.89 47.66C18.99 47.36 20.11 47.17 21.25 47.07C24.91 46.72 28.56 46.6 30.75 46.6C32.89 46.6 36.69 46.72 40.36 47.07C41.5 47.17 42.63 47.36 43.74 47.66C44.47 47.85 45.16 48.02 46.12 48.04C46.12 48.55 46.33 49.04 46.69 49.4C47.05 49.76 47.54 49.96 48.05 49.96L54.77 49.96C55.28 49.96 55.77 49.76 56.13 49.4C56.49 49.04 56.69 48.55 56.69 48.04L56.69 48.03C57.06 47.98 57.4 47.84 57.68 47.6C57.96 47.37 58.17 47.07 58.28 46.72C58.32 46.63 59.06 44.34 59.45 40.56C59.64 38.73 59.61 35.91 59.36 33.17ZM13.49 22.73C14.45 20.69 15.55 18.38 17.5 17.41C20.33 16 26.19 15.37 30.75 15.37C35.3 15.37 41.16 15.99 43.99 17.41C45.94 18.38 47.04 20.69 48 22.73L48.12 23C48.19 23.14 48.22 23.31 48.21 23.47C48.2 23.64 48.15 23.79 48.06 23.93C47.97 24.07 47.85 24.18 47.7 24.26C47.56 24.33 47.39 24.37 47.23 24.37C43.24 24.26 34.83 23.91 30.75 23.91C26.66 23.91 18.25 24.27 14.26 24.38C14.09 24.38 13.93 24.34 13.78 24.27C13.64 24.19 13.51 24.08 13.43 23.94C13.34 23.8 13.28 23.64 13.27 23.48C13.26 23.32 13.29 23.15 13.36 23C13.4 22.91 13.45 22.82 13.49 22.73ZM14.92 32.3C12.85 32.55 10.78 32.67 8.69 32.67C7.42 32.67 6.11 32.31 5.86 31.17C5.7 30.41 5.71 29.98 5.81 29.55C5.88 29.18 6 28.92 6.6 28.82C8.16 28.58 9.04 28.88 11.59 29.64C13.29 30.14 14.51 30.8 15.21 31.33C15.56 31.59 15.37 32.26 14.92 32.3ZM41.51 42.15C39.93 42.33 36.77 42.26 30.78 42.26C24.79 42.26 21.63 42.33 20.05 42.15C18.42 41.97 16.34 40.43 17.76 39.05C18.71 38.15 20.91 37.47 23.85 37.09C26.78 36.71 28.03 36.51 30.77 36.51C33.51 36.51 34.63 36.63 37.69 37.09C40.75 37.55 43.07 38.23 43.78 39.05C45.07 40.52 43.14 41.96 41.51 42.16L41.51 42.15ZM55.63 31.17C55.39 32.31 54.06 32.67 52.8 32.67C50.68 32.67 48.56 32.54 46.45 32.3C46.08 32.26 45.91 31.62 46.28 31.33C46.97 30.79 48.21 30.13 49.9 29.64C52.45 28.88 53.93 28.58 55.19 28.83C55.5 28.89 55.67 29.23 55.68 29.43C55.77 30.01 55.75 30.6 55.63 31.17L55.63 31.17Z" fill="#333333" fill-opacity="1.000000" fill-rule="nonzero"/>
	</g>
</svg>
