<svg width="60.000000" height="61.000000" viewBox="0 0 60 61" fill="none" xmlns="http://www.w3.org/2000/svg" xmlns:xlink="http://www.w3.org/1999/xlink">
	<desc>
			Created with Pixso.
	</desc>
	<defs>
		<clipPath id="clip160_23">
			<rect id="factory 1" rx="0.000000" width="59.000000" height="60.000000" transform="translate(0.500000 0.500000)" fill="white" fill-opacity="0"/>
		</clipPath>
	</defs>
	<rect id="factory 1" rx="0.000000" width="59.000000" height="60.000000" transform="translate(0.500000 0.500000)" fill="#FFFFFF" fill-opacity="0"/>
	<g clip-path="url(#clip160_23)">
		<path id="Vector" d="M7.3 24.56L4.84 55.22L19.24 55.22L15.97 24.56L7.3 24.56Z" fill="#333333" fill-opacity="1.000000" fill-rule="nonzero"/>
		<path id="Vector" d="M7.88 17.25L7.53 21.64L15.66 21.64L15.19 17.25L7.88 17.25Z" fill="#333333" fill-opacity="1.000000" fill-rule="nonzero"/>
		<path id="Vector" d="M50.65 26.02L42.82 35.48L42.82 26.02L38.82 26.02L30.57 35.94L30.57 26.02L26.57 26.02L19.93 34.08L20.94 43.55L25.42 43.55L25.42 46.48L21.25 46.48L22.18 55.24L54.65 55.24L54.65 26.02L50.65 26.02ZM34.19 46.48L28.34 46.48L28.34 43.55L34.19 43.55L34.19 46.48ZM42.96 46.48L37.11 46.48L37.11 43.55L42.96 43.55L42.96 46.48ZM51.72 46.48L45.88 46.48L45.88 43.55L51.72 43.55L51.72 46.48Z" fill="#333333" fill-opacity="1.000000" fill-rule="nonzero"/>
		<path id="Vector" d="M17.82 14.33L18.8 23.55C20.32 23.42 21.76 22.84 22.95 21.9C24.29 22.68 25.82 23.1 27.37 23.1C29.79 23.1 32.08 22.1 33.72 20.37C34.77 20.88 35.92 21.15 37.11 21.15C38.82 21.15 40.49 20.58 41.83 19.55C42.96 20.27 44.27 20.66 45.64 20.66C49.53 20.66 52.7 17.49 52.7 13.6C52.7 9.7 49.53 6.54 45.64 6.54C44.42 6.54 43.23 6.85 42.18 7.44C40.78 6.23 38.99 5.56 37.11 5.56C35.4 5.56 33.75 6.13 32.4 7.15C30.93 6.12 29.19 5.56 27.37 5.56C24.85 5.56 22.48 6.64 20.83 8.49C19.97 8.16 19.04 8 18.11 8C14.32 8 11.15 10.73 10.46 14.33L17.82 14.33Z" fill="#333333" fill-opacity="1.000000" fill-rule="nonzero"/>
	</g>
</svg>
