<svg width="58.000000" height="58.000000" viewBox="0 0 58 58" fill="none" xmlns="http://www.w3.org/2000/svg" xmlns:xlink="http://www.w3.org/1999/xlink">
	<desc>
			Created with Pixso.
	</desc>
	<defs>
		<clipPath id="clip160_29">
			<rect id="long-sofa 1" rx="0.000000" width="57.000000" height="57.000000" transform="translate(0.500000 0.500000)" fill="white" fill-opacity="0"/>
		</clipPath>
	</defs>
	<rect id="long-sofa 1" rx="0.000000" width="57.000000" height="57.000000" transform="translate(0.500000 0.500000)" fill="#FFFFFF" fill-opacity="0"/>
	<g clip-path="url(#clip160_29)">
		<path id="Vector" d="M38.1 11.54L19.89 11.54C14.56 11.54 10.13 15.39 9.24 20.47C9.15 21 9.62 21.45 10.16 21.45C15.11 21.45 19.12 25.46 19.12 30.41C19.12 30.86 19.49 31.23 19.94 31.23L38.05 31.23C38.5 31.23 38.87 30.86 38.87 30.41C38.87 25.46 42.88 21.45 47.83 21.45C48.37 21.45 48.84 21 48.75 20.47C47.86 15.39 43.43 11.54 38.1 11.54Z" fill="#333333" fill-opacity="1.000000" fill-rule="nonzero"/>
		<path id="Vector" d="M10.16 25.07C7.22 25.07 4.83 27.46 4.83 30.41L4.83 33.66C4.83 38.08 7.5 41.88 11.32 43.53C11.9 43.78 12.26 44.4 12.11 45.01L11.45 47.83C11.22 48.8 11.82 49.78 12.79 50.01C13.77 50.24 14.74 49.64 14.97 48.66L15.76 45.33C15.89 44.78 16.38 44.4 16.94 44.4L41.05 44.4C41.61 44.4 42.1 44.78 42.23 45.33L43.02 48.66C43.25 49.64 44.22 50.24 45.2 50.01C46.17 49.78 46.77 48.8 46.54 47.83L45.88 45.01C45.73 44.4 46.09 43.78 46.68 43.53C50.49 41.88 53.16 38.08 53.16 33.66L53.16 30.41C53.16 27.46 50.77 25.07 47.83 25.07C44.88 25.07 42.49 27.46 42.49 30.41L42.49 31.59C42.49 33.39 41.03 34.85 39.23 34.85L17.96 34.85C16.6 34.85 15.5 33.75 15.5 32.39L15.5 30.41C15.5 27.46 13.11 25.07 10.16 25.07Z" fill="#333333" fill-opacity="1.000000" fill-rule="nonzero"/>
	</g>
</svg>
