<svg width="61.500000" height="61.500000" viewBox="0 0 61.5 61.5" fill="none" xmlns="http://www.w3.org/2000/svg" xmlns:xlink="http://www.w3.org/1999/xlink">
	<desc>
			Created with Pixso.
	</desc>
	<defs>
		<clipPath id="clip160_18">
			<rect id="plane 1" rx="0.000000" width="60.500000" height="60.500000" transform="translate(0.500000 0.500000)" fill="white" fill-opacity="0"/>
		</clipPath>
	</defs>
	<rect id="plane 1" rx="0.000000" width="60.500000" height="60.500000" transform="translate(0.500000 0.500000)" fill="#FFFFFF" fill-opacity="0"/>
	<g clip-path="url(#clip160_18)">
		<path id="Vector" d="M50.53 18.55C52.27 16.82 53.38 14.62 53.76 12.2C53.95 10.95 53.55 9.72 52.66 8.83C51.77 7.94 50.54 7.54 49.29 7.73C46.87 8.11 44.67 9.22 42.94 10.96L37.58 16.32L34.37 15.62C34.91 14.79 34.82 13.65 34.09 12.92C33.26 12.09 31.9 12.09 31.06 12.92L29.44 14.54L25.64 13.72L25.9 13.45C26.74 12.62 26.74 11.26 25.9 10.42C25.1 9.61 23.69 9.61 22.88 10.42L20.66 12.63L12.79 10.92C12.17 10.78 11.54 10.97 11.08 11.42L9.5 13C9.08 13.42 8.89 13.99 8.97 14.58C9.06 15.16 9.4 15.66 9.92 15.94L28.4 26.16L19.04 36.4L9.54 36.9L8.07 38.37C7.75 38.69 7.62 39.14 7.71 39.58C7.81 40.01 8.11 40.37 8.53 40.53L17.53 43.96L20.96 52.96C21.12 53.38 21.48 53.69 21.92 53.78C22.01 53.8 22.1 53.81 22.19 53.81C22.54 53.81 22.87 53.67 23.12 53.42L24.59 51.95L25.1 42.45L35.34 33.09L45.54 51.57C45.83 52.08 46.32 52.43 46.91 52.51C47.49 52.59 48.06 52.4 48.48 51.98L50.07 50.4C50.51 49.95 50.7 49.31 50.57 48.69L48.86 40.83L51.07 38.62C51.47 38.21 51.7 37.67 51.7 37.1C51.7 36.53 51.47 35.99 51.07 35.59C50.23 34.75 48.88 34.75 48.04 35.59L47.77 35.85L46.95 32.05L48.57 30.43C48.97 30.02 49.2 29.48 49.2 28.91C49.2 28.34 48.97 27.8 48.57 27.4C47.86 26.69 46.7 26.6 45.87 27.13L45.17 23.91L50.54 18.55L50.53 18.55Z" fill="#333333" fill-opacity="1.000000" fill-rule="nonzero"/>
	</g>
</svg>
