<svg width="57.000000" height="57.000000" viewBox="0 0 57 57" fill="none" xmlns="http://www.w3.org/2000/svg" xmlns:xlink="http://www.w3.org/1999/xlink">
	<desc>
			Created with Pixso.
	</desc>
	<defs>
		<clipPath id="clip160_6">
			<rect id="t-shirt 1" rx="0.000000" width="56.000000" height="56.000000" transform="translate(0.500000 0.500000)" fill="white" fill-opacity="0"/>
		</clipPath>
	</defs>
	<rect id="t-shirt 1" rx="0.000000" width="56.000000" height="56.000000" transform="translate(0.500000 0.500000)" fill="#FFFFFF" fill-opacity="0"/>
	<g clip-path="url(#clip160_6)">
		<path id="Vector" d="M7.19 22.29L13.58 22.29L13.58 51.05C13.58 51.64 14.06 52.12 14.65 52.12L42.34 52.12C42.93 52.12 43.41 51.64 43.41 51.05L43.41 22.29L49.8 22.29C50.34 22.29 50.8 21.88 50.86 21.34L51.93 11.75C51.98 11.25 51.68 10.78 51.2 10.63L35.22 5.3C34.81 5.16 34.36 5.29 34.08 5.62C31.31 9.01 25.68 9.01 22.91 5.62C22.63 5.29 22.18 5.16 21.77 5.3L5.79 10.63C5.31 10.78 5.01 11.26 5.06 11.75L6.13 21.34C6.19 21.88 6.64 22.29 7.19 22.29Z" fill="#333333" fill-opacity="1.000000" fill-rule="nonzero"/>
	</g>
</svg>
