<svg width="82.743164" height="50.251465" viewBox="0 0 82.7432 50.2515" fill="none" xmlns="http://www.w3.org/2000/svg" xmlns:xlink="http://www.w3.org/1999/xlink">
	<desc>
			Created with Pixso.
	</desc>
	<defs/>
	<path id="Vector" d="M25.48 0C18.71 0.02 12.22 2.68 7.44 7.4C2.66 12.12 -0.02 18.5 6.1e-5 25.16C0.01 31.82 2.7 38.2 7.5 42.9C12.29 47.6 18.79 50.25 25.56 50.25C32.34 50.25 38.83 47.6 43.63 42.9C48.42 38.2 51.12 31.82 51.13 25.16C51.14 18.5 48.46 12.12 43.69 7.4C38.91 2.68 32.42 0.02 25.65 0L25.48 0Z" fill="#EB001B" fill-opacity="1.000000" fill-rule="nonzero"/>
	<path id="Vector" d="M57.09 0C50.31 0.02 43.83 2.68 39.05 7.4C34.27 12.12 31.59 18.5 31.6 25.16C31.61 31.82 34.31 38.2 39.11 42.9C43.9 47.6 50.4 50.25 57.17 50.25C63.94 50.25 70.44 47.6 75.23 42.9C80.03 38.2 82.73 31.82 82.74 25.16C82.75 18.5 80.07 12.12 75.29 7.4C70.52 2.68 64.03 0.02 57.25 0L57.09 0Z" fill="#F79E1B" fill-opacity="1.000000" fill-rule="nonzero"/>
	<path id="Vector" d="M41.37 5.36C38.32 7.71 35.86 10.71 34.17 14.14C32.47 17.56 31.59 21.31 31.59 25.12C31.59 28.93 32.47 32.68 34.17 36.11C35.86 39.53 38.32 42.53 41.37 44.88C44.41 42.53 46.87 39.53 48.57 36.11C50.26 32.68 51.14 28.93 51.14 25.12C51.14 21.31 50.26 17.56 48.57 14.14C46.87 10.71 44.41 7.71 41.37 5.36Z" fill="#FF5F00" fill-opacity="1.000000" fill-rule="nonzero"/>
</svg>
