<svg width="83.250000" height="26.533447" viewBox="0 0 83.25 26.5334" fill="none" xmlns="http://www.w3.org/2000/svg" xmlns:xlink="http://www.w3.org/1999/xlink">
	<desc>
			Created with Pixso.
	</desc>
	<defs/>
	<path id="Vector" d="M54.22 0C48.31 0 43.03 3.01 43.03 8.58C43.03 14.96 52.39 15.4 52.39 18.61C52.39 19.96 50.82 21.17 48.13 21.17C44.32 21.17 41.47 19.48 41.47 19.48L40.25 25.1C40.25 25.1 43.53 26.53 47.89 26.53C54.35 26.53 59.44 23.37 59.44 17.7C59.44 10.96 50.03 10.53 50.03 7.55C50.03 6.49 51.32 5.33 54 5.33C57.03 5.33 59.5 6.56 59.5 6.56L60.69 1.14C60.69 1.14 58 0 54.22 0L54.22 0ZM0.14 0.4L0 1.22C0 1.22 2.48 1.67 4.72 2.56C7.61 3.59 7.81 4.19 8.3 6.04L13.59 26.11L20.68 26.11L31.61 0.4L24.54 0.4L17.51 17.88L14.65 3.07C14.38 1.37 13.05 0.4 11.42 0.4L0.14 0.4L0.14 0.4ZM34.46 0.4L28.91 26.11L35.66 26.11L41.19 0.4L34.46 0.4ZM72.11 0.4C70.48 0.4 69.62 1.26 68.99 2.76L59.1 26.11L66.17 26.11L67.54 22.21L76.17 22.21L77 26.11L83.25 26.11L77.8 0.4L72.11 0.4ZM73.03 7.35L75.13 16.99L69.51 16.99L73.03 7.35L73.03 7.35Z" fill="#FFFFFF" fill-opacity="1.000000" fill-rule="nonzero"/>
</svg>
