<svg width="26.250000" height="26.250000" viewBox="0 0 26.25 26.25" fill="none" xmlns="http://www.w3.org/2000/svg" xmlns:xlink="http://www.w3.org/1999/xlink">
	<desc>
			Created with Pixso.
	</desc>
	<defs>
		<clipPath id="clip56_1061">
			<rect id="heart 4" rx="0.000000" width="25.500000" height="25.500000" transform="translate(0.375000 0.375000)" fill="white" fill-opacity="0"/>
		</clipPath>
	</defs>
	<rect id="heart 4" rx="0.000000" width="25.500000" height="25.500000" transform="translate(0.375000 0.375000)" fill="#FFFFFF" fill-opacity="0"/>
	<g clip-path="url(#clip56_1061)">
		<path id="Vector" d="M26.05 9.93C26.05 12.12 25.29 14.11 23.66 16.19C21.75 18.61 18.64 21.16 14.14 23.96C13.82 24.16 13.47 24.25 13.12 24.25C12.76 24.25 12.41 24.16 12.1 23.96C7.59 21.16 4.48 18.61 2.57 16.19C0.94 14.1 0.19 12.12 0.19 9.93C0.19 7.74 0.86 6 2.04 4.55C3.39 2.89 5.32 1.98 7.48 1.98C9.64 1.98 12.14 3.36 13.12 4.45C14.1 3.36 15.89 1.98 18.75 1.98C21.61 1.98 22.85 2.89 24.19 4.55C25.37 6 26.05 7.96 26.05 9.93Z" fill="#FFFFFF" fill-opacity="1.000000" fill-rule="nonzero"/>
	</g>
</svg>
