<svg width="26.250000" height="26.250000" viewBox="0 0 26.25 26.25" fill="none" xmlns="http://www.w3.org/2000/svg" xmlns:xlink="http://www.w3.org/1999/xlink">
	<desc>
			Created with Pixso.
	</desc>
	<defs>
		<clipPath id="clip56_1042">
			<rect id="shopping-cart 1" rx="0.000000" width="25.500000" height="25.500000" transform="translate(0.375000 0.375000)" fill="white" fill-opacity="0"/>
		</clipPath>
	</defs>
	<rect id="shopping-cart 1" rx="0.000000" width="25.500000" height="25.500000" transform="translate(0.375000 0.375000)" fill="#FFFFFF" fill-opacity="0"/>
	<g clip-path="url(#clip56_1042)">
		<path id="Vector" d="M22.91 17.86L10.03 17.86C9.8 17.86 9.66 17.73 9.61 17.65C9.55 17.57 9.45 17.42 9.51 17.19L9.72 16.31C9.8 16 10.08 15.78 10.41 15.78L21.66 15.78C22.18 15.78 22.65 15.44 22.81 14.95L25.58 6.61C25.82 5.9 25.29 5.18 24.55 5.18L7.49 5.18C7.19 5.18 6.92 4.99 6.83 4.7L5.82 1.68C5.68 1.25 5.27 0.95 4.82 0.95L1.68 0.95C1.11 0.95 0.62 1.39 0.6 1.96C0.57 2.53 1.05 3.07 1.66 3.07L3.53 3.07C3.85 3.07 4.13 3.27 4.23 3.57L7.73 14.1C7.87 14.53 7.89 14.98 7.78 15.42L7.46 16.69C7.26 17.51 7.45 18.35 7.98 19.01C8.51 19.66 9.27 19.99 10.08 19.99L22.95 19.99C23.55 19.99 24.03 19.49 24 18.88C23.98 18.27 23.49 17.87 22.92 17.87L22.92 17.86L22.91 17.86Z" fill="#FFFFFF" fill-opacity="1.000000" fill-rule="nonzero"/>
		<path id="Vector" d="M9.22 21.07C10.39 21.15 11.27 22.16 11.19 23.33C11.1 24.5 10.09 25.38 8.92 25.3C7.75 25.22 6.87 24.2 6.95 23.03C7.04 21.86 8.05 20.98 9.22 21.07Z" fill="#FFFFFF" fill-opacity="1.000000" fill-rule="evenodd"/>
		<path id="Vector" d="M23.87 23.16C23.87 24.34 22.92 25.29 21.75 25.29C20.58 25.29 19.62 24.34 19.62 23.16C19.62 21.99 20.58 21.04 21.75 21.04C22.92 21.04 23.87 21.99 23.87 23.16Z" fill="#FFFFFF" fill-opacity="1.000000" fill-rule="evenodd"/>
	</g>
</svg>
