<svg width="12.000000" height="39.000000" viewBox="0 0 12 39" fill="none" xmlns="http://www.w3.org/2000/svg" xmlns:xlink="http://www.w3.org/1999/xlink">
	<desc>
			Created with Pixso.
	</desc>
	<defs>
		<clipPath id="clip23_124">
			<rect id="arrow 2" rx="0.000000" width="11.250000" height="38.250000" transform="translate(12.375000 39.375000) rotate(-179.999985)" fill="white" fill-opacity="0"/>
		</clipPath>
	</defs>
	<rect id="arrow 2" rx="0.000000" width="11.250000" height="38.250000" transform="translate(12.375000 39.375000) rotate(-179.999985)" fill="#FFFFFF" fill-opacity="0"/>
	<g clip-path="url(#clip23_124)">
		<path id="Vector" d="M9.61 0C9.9 0 10.2 0.05 10.5 0.16C11.72 0.63 12.31 1.97 11.82 3.14L4.96 19.49L11.82 35.85C12.31 37.02 11.72 38.36 10.5 38.83C9.27 39.3 7.88 38.73 7.39 37.56L0.17 20.35C-0.06 19.8 -0.06 19.19 0.17 18.64L7.39 1.43C7.76 0.54 8.66 0 9.61 0L9.61 0Z" fill="#FFFFFF" fill-opacity="1.000000" fill-rule="nonzero"/>
	</g>
</svg>
